<?xml version="1.0" encoding="UTF-8"?>
<svg id="svg2" width="256" height="256" version="1.0" xmlns="http://www.w3.org/2000/svg" xmlns:cc="http://creativecommons.org/ns#" xmlns:dc="http://purl.org/dc/elements/1.1/" xmlns:rdf="http://www.w3.org/1999/02/22-rdf-syntax-ns#" xmlns:xlink="http://www.w3.org/1999/xlink">
 <defs id="defs4">
  <radialGradient id="radialGradient13135" cx="120.45" cy="137.24" r="118.48" gradientTransform="matrix(-1.2211e-8 -1.1014 .97488 0 -13.335 268.53)" gradientUnits="userSpaceOnUse">
   <stop id="stop12160" stop-color="#0f0" offset="0"/>
   <stop id="stop2169" stop-color="#0f0" offset=".48563"/>
   <stop id="stop12162" stop-color="#505050" offset="1"/>
  </radialGradient>
  <radialGradient id="radialGradient3193" cx="120.45" cy="137.24" r="118.48" gradientTransform="matrix(-1.2211e-8 -1.1014 .97488 0 -13.335 268.53)" gradientUnits="userSpaceOnUse">
   <stop id="stop3187" stop-color="#00f" offset="0"/>
   <stop id="stop3189" stop-color="#00f" offset=".5"/>
   <stop id="stop3191" stop-color="#505050" offset="1"/>
  </radialGradient>
  <radialGradient id="radialGradient5135" cx="126.78" cy="127.67" r="55.719" gradientTransform="matrix(2.1712 0 0 2.1326 -148.49 -144.61)" gradientUnits="userSpaceOnUse">
   <stop id="stop13141" stop-color="#f00" offset="0"/>
   <stop id="stop2167" stop-color="#f00" offset=".5"/>
   <stop id="stop13143" stop-color="#505050" offset="1"/>
  </radialGradient>
 </defs>
 <metadata id="metadata7">
  <rdf:RDF>
   <cc:Work rdf:about="">
    <dc:format>image/svg+xml</dc:format>
    <dc:type rdf:resource="http://purl.org/dc/dcmitype/StillImage"/>
    <dc:title/>
   </cc:Work>
  </rdf:RDF>
 </metadata>
 <g id="layer1">
  <path id="path2191" d="m189.38 107.41-0.0625 42.781h0.40625v78.219c30.361-19.045 51.494-51.432 55.188-88.938zm-125.75-80.438c-30.281 19.015-51.387 51.309-55.156 88.688l55.531 32.062 0.03125-45.719z" fill="url(#radialGradient3193)"/>
  <path id="path11171" d="m7.9375 131.88c1.3169 37.987 20.479 71.434 49.375 92.25l55.531-32.062-40.406-23.344-0.15625 0.28125-64.344-37.125zm188.28-100.53-55.531 32.062 36.438 21.062 0.28125-0.46875 68 39.25c-1.3944-37.803-20.462-71.122-49.188-91.906z" fill="url(#radialGradient13135)"/>
  <path id="path2193" d="m126.69 8.8438c-17.364 0-33.875 3.7333-48.75 10.438v64.156l34.781-20.062-0.15625-0.25 69.938-40.375c-16.641-8.8791-35.644-13.906-55.812-13.906zm48.719 163.06-38.531 22.219 0.25 0.40625-66.062 38.156c16.601 8.8136 35.532 13.812 55.625 13.812 17.356 0 33.854-3.712 48.719-10.406v-64.188z" fill="url(#radialGradient5135)"/>
 </g>
</svg>
