<?xml version="1.0" encoding="UTF-8" standalone="no"?>
<svg
   xmlns:dc="http://purl.org/dc/elements/1.1/"
   xmlns:cc="http://creativecommons.org/ns#"
   xmlns:rdf="http://www.w3.org/1999/02/22-rdf-syntax-ns#"
   xmlns:svg="http://www.w3.org/2000/svg"
   xmlns="http://www.w3.org/2000/svg"
   xmlns:xlink="http://www.w3.org/1999/xlink"
   xmlns:sodipodi="http://sodipodi.sourceforge.net/DTD/sodipodi-0.dtd"
   xmlns:inkscape="http://www.inkscape.org/namespaces/inkscape"
   width="24"
   height="24"
   stroke-width="1.5"
   viewBox="0 0 24 24"
   fill="none"
   version="1.1"
   id="svg10"
   sodipodi:docname="rotate-camera.svg"
   inkscape:version="1.0.2 (e86c870879, 2021-01-15)">
  <metadata
     id="metadata16">
    <rdf:RDF>
      <cc:Work
         rdf:about="">
        <dc:format>image/svg+xml</dc:format>
        <dc:type
           rdf:resource="http://purl.org/dc/dcmitype/StillImage" />
      </cc:Work>
    </rdf:RDF>
  </metadata>
  <defs
     id="defs14">
    <linearGradient
       inkscape:collect="always"
       id="linearGradient894">
      <stop
         style="stop-color:#ff8080;stop-opacity:1;"
         offset="0"
         id="stop890" />
      <stop
         style="stop-color:#ff8080;stop-opacity:0;"
         offset="1"
         id="stop892" />
    </linearGradient>
    <linearGradient
       inkscape:collect="always"
       id="linearGradient861">
      <stop
         style="stop-color:#00b9ff;stop-opacity:1;"
         offset="0"
         id="stop867" />
      <stop
         style="stop-color:#00b9ff;stop-opacity:0;"
         offset="1"
         id="stop869" />
    </linearGradient>
    <linearGradient
       inkscape:collect="always"
       xlink:href="#linearGradient861"
       id="linearGradient865"
       gradientUnits="userSpaceOnUse"
       x1="9.3360338"
       y1="9.3296432"
       x2="14.766604"
       y2="14.719784"
       gradientTransform="matrix(0.85915498,0,0,0.85709372,1.6671237,1.714874)" />
    <linearGradient
       inkscape:collect="always"
       xlink:href="#linearGradient894"
       id="linearGradient896"
       x1="11.157036"
       y1="12.883873"
       x2="13.268686"
       y2="10.542739"
       gradientUnits="userSpaceOnUse"
       gradientTransform="matrix(0.85915498,0,0,0.85709372,1.6671237,1.714874)" />
  </defs>
  <sodipodi:namedview
     pagecolor="#ffffff"
     bordercolor="#666666"
     borderopacity="1"
     objecttolerance="10"
     gridtolerance="10"
     guidetolerance="10"
     inkscape:pageopacity="0"
     inkscape:pageshadow="2"
     inkscape:window-width="1366"
     inkscape:window-height="717"
     id="namedview12"
     showgrid="false"
     inkscape:zoom="8.1022652"
     inkscape:cx="1.8261636"
     inkscape:cy="10.890844"
     inkscape:window-x="0"
     inkscape:window-y="27"
     inkscape:window-maximized="1"
     inkscape:current-layer="svg10" />
  <path
     d="m 20.570939,4.2861554 v 3.854385 c 0,0.2380835 -0.193481,0.431084 -0.432154,0.431084 v 0 c -0.171747,0 -0.326308,-0.1019599 -0.400194,-0.2566225 -1.38135,-2.8893575 -4.3365,-4.8859404 -7.759202,-4.8859404 -4.4550105,0 -8.1180607,3.382675 -8.549116,7.7138445"
     stroke="currentColor"
     stroke-linecap="round"
     stroke-linejoin="round"
     id="path2"
     style="stroke-width:0.858123;stroke-miterlimit:4;stroke-dasharray:none;stroke:#000000;stroke-opacity:0.50744128" />
  <path
     d="m 6.8220537,15.771213 v -6.0051 c 0,-0.2840152 0.2307948,-0.5142561 0.515493,-0.5142561 h 1.0076427 c 0.1752162,0 0.3384297,-0.088786 0.433332,-0.2357179 L 10.020516,7.0931547 c 0.0949,-0.1469316 0.25809,-0.235718 0.433359,-0.235718 h 3.046219 c 0.175267,0 0.338421,0.088786 0.433357,0.235718 l 1.241996,1.9229843 c 0.09494,0.1469315 0.25809,0.2357179 0.433357,0.2357179 h 1.007617 c 0.284724,0 0.515493,0.2302409 0.515493,0.5142561 v 6.0051 c 0,0.284041 -0.230769,0.514256 -0.515493,0.514256 H 7.3375467 c -0.2846982,0 -0.515493,-0.230215 -0.515493,-0.514256 z"
     stroke="currentColor"
     stroke-linecap="round"
     stroke-linejoin="round"
     id="path4"
     style="fill:#55ff55;stroke-width:0.858123;stroke-miterlimit:4;stroke-dasharray:none;stroke:#000000;stroke-opacity:0.49770123" />
  <path
     d="m 11.976983,13.714188 c 0.949024,0 1.718311,-0.767442 1.718311,-1.714188 0,-0.946746 -0.769287,-1.714188 -1.718311,-1.714188 -0.949022,0 -1.718309,0.767442 -1.718309,1.714188 0,0.946746 0.769287,1.714188 1.718309,1.714188 z"
     stroke="currentColor"
     stroke-linecap="round"
     stroke-linejoin="round"
     id="path6"
     style="fill:url(#linearGradient896);fill-opacity:1;stroke:url(#linearGradient865);stroke-width:1.2872;stroke-opacity:1" />
  <path
     d="m 3.4290615,19.713844 v -3.854352 c 0,-0.238099 0.1934645,-0.431116 0.4321207,-0.431116 v 0 c 0.1717623,0 0.3263327,0.101993 0.4002717,0.256614 1.3812978,2.889349 4.3364989,4.885949 7.7591771,4.885949 4.454975,0 8.118068,-3.382693 8.549106,-7.713845"
     stroke="currentColor"
     stroke-linecap="round"
     stroke-linejoin="round"
     id="path8"
     style="stroke-width:0.858123;stroke-miterlimit:4;stroke-dasharray:none;stroke:#000000;stroke-opacity:0.50046647" />
</svg>
