<?xml version="1.0" standalone="no"?>
<!DOCTYPE svg PUBLIC "-//W3C//DTD SVG 20010904//EN"
 "http://www.w3.org/TR/2001/REC-SVG-20010904/DTD/svg10.dtd">
<svg version="1.0" xmlns="http://www.w3.org/2000/svg"
 width="800.000000pt" height="800.000000pt" viewBox="0 0 800.000000 800.000000"
 preserveAspectRatio="xMidYMid meet">
<metadata>
Created by potrace 1.14, written by Peter Selinger 2001-2017
</metadata>
<g transform="translate(0.000000,800.000000) scale(0.100000,-0.100000)"
fill="#000000" stroke="none">
<path d="M1815 6720 c-111 -293 -260 -769 -289 -921 -2 -13 -11 -51 -19 -84
-9 -33 -19 -76 -22 -95 -3 -19 -10 -51 -15 -70 -5 -19 -11 -51 -14 -70 -3 -19
-8 -46 -11 -60 -3 -14 -8 -38 -10 -55 -3 -16 -10 -55 -15 -85 -15 -86 -48
-328 -56 -405 -3 -38 -8 -83 -10 -100 -2 -28 -13 -191 -19 -295 -2 -25 -3 -87
-4 -137 l-1 -93 -235 0 -235 0 -1 -27 c-2 -53 0 -106 6 -111 2 -3 108 -5 235
-5 l230 0 1 -86 c9 -712 164 -1508 441 -2266 16 -44 36 -99 45 -122 l15 -43
99 0 c81 0 99 3 99 15 0 8 -20 86 -44 172 -38 137 -49 179 -62 228 -18 72 -57
236 -60 255 -3 14 -10 45 -15 70 -6 25 -13 56 -15 70 -2 14 -7 36 -10 50 -3
14 -8 36 -10 50 -2 14 -7 35 -9 48 -7 27 -37 201 -49 280 -17 108 -31 209 -41
287 -3 33 -8 71 -11 85 -2 14 -6 57 -9 95 -4 39 -8 81 -10 95 -3 14 -7 66 -11
115 -3 50 -8 106 -9 125 -2 19 -6 112 -10 205 -4 94 -8 189 -9 212 -2 23 0 46
3 51 3 5 81 9 174 10 92 0 178 1 191 1 23 1 24 4 23 69 l-1 67 -196 5 -195 5
2 125 c2 119 11 328 18 415 2 22 6 78 10 125 3 47 8 103 11 125 2 22 7 63 9
90 3 28 8 66 10 85 3 19 7 55 10 79 3 23 7 55 9 70 3 14 8 46 11 71 45 336
144 786 258 1176 l44 151 -103 -1 -102 -1 -17 -45z"/>
<path d="M5584 6763 c-9 -3 6 -59 39 -143 14 -37 79 -247 111 -361 107 -382
180 -737 231 -1126 16 -124 19 -159 30 -293 4 -41 8 -91 10 -110 4 -43 18
-355 18 -425 l1 -50 -250 -5 -249 -5 1 -60 c1 -33 2 -64 3 -70 1 -6 90 -10
247 -9 l246 1 -6 -191 c-4 -105 -9 -207 -11 -226 -2 -19 -6 -73 -10 -120 -3
-47 -8 -96 -10 -110 -1 -14 -6 -54 -9 -90 -4 -36 -10 -83 -13 -105 -3 -22 -6
-51 -8 -65 -1 -14 -6 -44 -10 -68 -4 -23 -8 -52 -10 -65 -4 -35 -27 -180 -31
-202 -6 -25 -35 -172 -41 -205 -2 -14 -13 -65 -24 -115 -12 -49 -22 -99 -25
-110 -27 -138 -216 -795 -241 -837 -2 -5 43 -8 100 -8 l104 0 70 183 c117 302
193 538 263 810 22 88 42 169 44 180 3 12 7 31 10 42 2 11 16 81 30 155 15 74
31 158 36 185 5 28 12 70 15 95 3 25 7 56 10 69 2 13 7 49 10 80 4 31 8 67 11
81 2 14 6 61 10 105 3 44 7 91 9 104 5 28 16 240 19 351 l2 75 187 1 c103 0
191 4 195 8 4 4 7 35 7 69 l0 62 -195 5 -195 5 -1 65 c-2 95 -14 331 -18 360
-3 14 -7 61 -11 105 -6 86 -46 381 -61 459 -2 11 -7 37 -10 56 -4 19 -8 44
-11 55 -2 11 -6 36 -9 55 -3 19 -17 82 -31 140 -13 58 -27 116 -29 130 -13 67
-85 322 -134 475 -56 177 -157 454 -202 555 l-24 54 -90 2 c-49 0 -94 -1 -100
-3z"/>
<path d="M2510 6583 c-1 -96 -1 -752 0 -789 l0 -31 90 0 c75 0 90 3 91 16 1 9
2 79 4 156 1 77 3 143 4 146 0 4 90 7 199 7 108 0 208 1 222 1 25 1 25 3 26
71 l1 70 -227 0 -227 0 1 128 c1 70 4 132 8 137 4 6 91 10 232 10 l226 -1 0
73 0 73 -325 0 -325 0 0 -67z"/>
<path d="M4608 6643 c-1 -5 -2 -204 -3 -444 l-1 -436 90 0 91 1 5 161 5 160
210 2 c116 1 216 2 223 2 8 1 12 22 12 71 l0 70 -225 0 -225 0 0 135 c0 101 3
135 13 136 6 1 111 2 232 3 l220 1 1 60 c0 33 -2 66 -4 73 -3 9 -77 12 -323
12 -175 0 -320 -3 -321 -7z"/>
<path d="M2759 5571 c-1 -3 -2 -129 -3 -278 0 -176 3 -273 9 -274 11 -1 103
-1 123 0 9 1 12 64 12 280 l0 279 -70 0 c-38 0 -70 -3 -71 -7z"/>
<path d="M4757 5571 c-2 -3 -2 -127 -2 -275 1 -257 2 -269 21 -276 10 -3 33
-5 49 -4 17 1 40 2 53 3 l22 1 0 280 0 280 -71 -2 c-38 -1 -71 -4 -72 -7z"/>
<path d="M2705 4704 c-93 -21 -94 -21 -154 -55 -31 -18 -75 -53 -99 -78 -45
-47 -107 -163 -117 -216 -51 -277 6 -506 160 -637 71 -60 209 -107 329 -112
212 -7 364 61 462 207 68 102 69 98 -40 139 -93 35 -116 35 -116 2 0 -7 -20
-37 -44 -67 -60 -73 -122 -100 -231 -100 -195 1 -301 122 -309 355 -9 266 108
405 334 394 105 -5 190 -56 235 -140 l18 -34 91 25 c50 14 94 28 98 31 13 14
-47 118 -96 168 -55 55 -130 94 -216 114 -75 18 -232 20 -305 4z"/>
<path d="M4679 4696 c-149 -37 -242 -111 -302 -238 -43 -90 -59 -162 -59 -281
-1 -84 2 -114 17 -186 46 -228 231 -373 490 -384 211 -9 371 65 470 218 57 89
58 86 -52 127 l-98 36 -18 -38 c-51 -106 -139 -161 -261 -163 -137 -1 -218 44
-274 153 -36 71 -46 125 -46 241 1 161 57 274 161 325 51 25 69 29 148 28 73
0 99 -4 137 -23 56 -27 105 -74 124 -118 l14 -32 92 26 c51 13 96 28 100 31
13 14 -47 118 -96 168 -87 86 -196 125 -362 129 -76 2 -122 -3 -185 -19z"/>
<path d="M3524 4180 l1 -70 35 -1 c45 -1 591 -1 608 0 8 1 12 22 12 71 l0 70
-328 0 -328 0 0 -70z"/>
<path d="M2758 3366 c-1 -11 -3 -135 -3 -274 1 -174 4 -255 12 -260 10 -6 41
-7 113 -3 19 1 20 8 20 281 l0 280 -69 -1 c-62 -1 -69 -4 -73 -23z"/>
<path d="M4759 3382 c-6 -46 -2 -545 5 -549 8 -5 79 -7 124 -4 9 1 12 64 12
279 l0 278 -70 2 c-38 1 -70 -2 -71 -6z"/>
<path d="M2513 2544 c-2 -6 -5 -205 -6 -442 l-2 -432 60 -1 c72 -1 118 1 124
7 3 2 5 74 5 159 l-1 155 51 1 c28 0 129 0 224 0 94 -1 172 2 173 6 8 61 5
133 -4 134 -7 1 -104 3 -217 4 -113 2 -210 3 -216 4 -7 1 -10 46 -10 134 l1
132 233 3 232 2 0 70 0 70 -162 1 c-90 0 -234 1 -322 2 -106 1 -160 -2 -163
-9z"/>
<path d="M4559 2550 c-6 -23 -2 -873 3 -877 7 -4 81 -6 151 -4 l27 1 0 160 0
160 58 0 c31 1 132 1 224 1 121 0 167 3 170 12 2 7 3 39 3 72 l0 60 -225 0
-225 1 -3 137 -3 137 236 0 235 0 -1 70 -1 70 -227 1 c-124 0 -270 1 -324 2
-53 1 -98 0 -98 -3z"/>
<path d="M6722 1848 c-28 -10 -68 -36 -90 -58 l-39 -39 8 47 c4 26 5 49 3 51
-2 2 -34 5 -70 5 -75 2 -78 -1 -88 -79 -4 -27 -11 -68 -16 -90 -12 -52 -18
-84 -35 -179 -8 -43 -17 -86 -19 -95 -3 -9 -7 -32 -10 -51 -4 -19 -10 -52 -15
-73 l-9 -38 81 3 80 3 37 188 c40 200 59 244 117 279 61 36 144 24 156 -23 6
-24 1 -57 -44 -283 -16 -82 -29 -153 -29 -158 0 -5 35 -8 77 -6 l77 3 28 145
c15 80 31 159 34 175 25 130 24 171 -4 219 -36 62 -142 87 -230 54z"/>
</g>
</svg>
