<?xml version="1.0" encoding="UTF-8"?>
<svg id="idx-a" width="128" height="128" version="1.1" viewBox="0 0 128 128" xmlns="http://www.w3.org/2000/svg" xmlns:cc="http://creativecommons.org/ns#" xmlns:dc="http://purl.org/dc/elements/1.1/" xmlns:rdf="http://www.w3.org/1999/02/22-rdf-syntax-ns#">
 <metadata id="idx-b">
  <rdf:RDF>
   <cc:Work rdf:about="">
    <dc:format>image/svg+xml</dc:format>
    <dc:type rdf:resource="http://purl.org/dc/dcmitype/StillImage"/>
    <dc:title/>
   </cc:Work>
  </rdf:RDF>
 </metadata>
 <g id="idx-c" transform="matrix(1.0069 0 0 .98382 -24.162 -25.349)" stroke-width=".32">
  <path id="idx-d" d="m92.39 155.51c-3.581-1.4646-7.7151-1.6088-11.48-1.4143-5.5 3.1203-11.704-0.18464-17.564 0.36987-4.6258-0.39945-14.187-0.39332-10.719-7.783 3.3928-2.5474-0.30549-6.3848 0.6616-9.9558-0.01365-3.6997 2.9691-6.7085 5.2761-9.3815-0.72562-5.7695-0.66469-11.661 0.05082-17.429-7.4783-3.0199-14.442-7.9601-18.684-14.932-2.577 0.08076-11.685 7.1105-9.3436 1.7736 1.2022-2.2204 11.095-3.3373 6.0001-8.1509-3.6601 0.45411-10.429 3.0675-10.781 2.5919-2.8427-3.5136 5.2771-3.6412 7.2864-4.5412 7.2652-0.18568 0.90593-7.2306-3.6103-5.0522-3.0667 1.175-8.9496-1.7253-2.828-2.3623 3.3588-1.4045 10.52 3.0259 9.8072-2.8507 0.44936-7.3711 3.5442-14.165 6.7534-20.669-0.12866-9.7279-1.2416-21.262 3.7114-29.068 4.1168-3.3193 12.029 3.5359 16.993 6.0779 3.0819 1.3649 5.1966 6.1397 8.8782 4.8545 5.3114-0.59767 10.807-0.55184 16.103 0.05564 3.0948 0.26438 6.481 2.8729 9.2805 1.7589 7.2937-4.6286 15.218-8.5089 23.587-10.616 2.3271-0.62697 4.5836-0.09804 5.0584 2.6429 1.3686 8.4791-0.48315 17.33-2.5526 25.605-2.1206 3.7496-1.909 7.3885-0.24415 11.262 1.8113 2.5696-0.15741 9.0661 2.6941 9.866 2.3586-0.93207 13.021-0.60107 6.7336 1.8082-5.8692-0.12514-11.917 1.9175-6.9153 4.8742 6.8008 0.05229 13.885 3.5387 7.2531 3.5197-3.6779-0.1669-11.351-3.8653-10.402 3.1191 1.9331 0.21073 10.586 3.2769 5.8885 4.3989-4.0823-1.3099-8.9075-2.8382-10.664 2.6268-4.538 4.7148-9.6029 9.7091-16.062 11.464 2.356 4.4403 6.9305 7.6896 8.9965 12.497 3.4828 4.0442 2.0587 11.85 5.4051 14.607 9.5716-1.8047 19.851-8.9221 20.251-19.474 0.48867-4.764-3.9713-7.4291-7.524-4.3799-3.9682 1.9757-9.1883-1.8485-8.2271-6.1474-0.60571-4.945 4.2386-8.5317 8.3752-10.164 2.6848-0.14792 5.5904-0.25318 8.2513 0.06563 10.004 3.8385 15.025 15.669 12.297 25.773-4.0833 16.039-20.721 25.741-36.523 26.388-3.9825 2.0458-7.7258 5.933-12.805 6.1724-2.8361 0.54607-5.8185 0.86498-8.6634 0.19852zm-20.192-7.5557c0.54976-2.6764-4.9217 3.7228-0.69518 0.47585zm19.454 1.0014c6.2927-3.8787-1.6285-2.5147-0.74815 0.76439zm-28.923-2.0228c-2.0923 0.35489-1.5254 3.3222 0 0zm-5.8515 0.40394c5.0988-3.6786-5.7395 2.3406 0 0zm18.132-1.98c0.46545-3.5061 2.128-12.248 0.41373-12.938 0.24303 3.961-2.9651 11.688-0.62803 13.475zm-10.503-3.2c-1.1293-9.243-2.1355-18.504-2.9333-27.776-1.5632 0.0161-0.42135 6.9991-0.58405 10.038 0.56928 6.7182 1.8922 13.406 3.1212 20.03 0.93574 0.81666 0.25039-2.1862 0.3962-2.2918zm-7.5664-3.6c-0.06301-2.2469 3.402-10.351-0.11596-4.4897-1.5039 1.8062-0.42173 11.37 0.11596 4.4897zm37.906 0.0536c0.18633-4.7405 5.2118-6.5671 8.0675-8.762-5.6484-1.0452-9.8167 5.3262-9.0403 10.42 0.54267 1.4929 0.91689-1.5212 0.9728-1.6581zm29.566-0.0982c9.0359-3.4798 17.117-12.285 15.979-22.515-0.1786 11.65-10.134 20.722-20.812 23.626-2.0989 0.78952 4.74-0.69207 4.833-1.111zm-23.798-4.2165c1.5783-4.0068-4.4892 0.56741 0 0zm24.607-28.385c2.3224-6.4564 11.013-6.2502 15.762-3.7168-4.5073-5.7116-17.26-2.5272-16.6 5.2645l0.35381-0.40616 0.48462-1.1415zm3.8742-0.0307c3.1953-4.9389-5.2642-1.7074-1.202 0.64334zm4.6655-2.0429c-0.0582-3.3036-5.641 0.13455-0.59918 0.44214zm-27.274-18.38c3.8684-2.0137 6.6689-6.3251 5.9838-10.74 1.01-6.9134-6.317-13.567-13.164-11.863-8.3083 1.5985-13.362 13.275-7.3146 19.841 2.5451 2.9402 6.3334 4.6257 10.177 3.915 1.6523 0.13186 2.9555-0.20162 4.317-1.1536zm-9.199-2.226c-5.0906-1.9744-7.7689-8.4561-4.9182-13.285 2.3505-5.3369 9.9714-8.0459 14.636-4.1118 3.0147 2.1209 4.1699 5.7945 3.7136 9.3108-0.67448 5.901-7.7559 10.367-13.432 8.0858zm7.8102-4.6964c1.3612-6.9777-6.6427 1.4149 0 0zm-3.7229-2.3303c7.2984-5.9777-7.376-13.142-7.613-3.8542-0.11894 3.7506 4.6597 6.115 7.613 3.8542zm-22.651 9.5531c5.0839-3.7535-8.3043-3.6409-2.236-0.0052 0.71657 0.35945 1.501 0.10518 2.236 0.0052zm-37.819-0.90088c-1.3388-4.9593-2.5665 2.7342 0 0zm20.348-1.0363c4.3439-1.6045 7.7144-6.5621 6.6305-11.183-0.61453 7.2852-10.87 11.46-16.521 6.5884-6.9955-5.6773-0.5963-17.835 7.8187-16.977 4.1257 1.3402 5.0916 0.61257 1.1699-0.94256-3.1984-0.41679-6.547-0.35215-9.0664 2.0336-2.7911 2.3407-4.8785 5.7837-4.5018 9.5062-1.3651 7.8976 7.4182 13.674 14.47 10.974zm-20.259-6.8628c0.50193-14.965 10.699-30.006 25.902-33.029 15.946-4.0769 35.146-1.7263 46.524 11.211 2.6539 1.3576-4.5268-5.8458-6.701-6.716-16.332-11.973-41.432-11.738-55.945 3.0916-7.2276 7.2378-11.398 17.37-11.724 27.553 1.6949 3.4272 2.0279-0.56439 1.9441-2.1103zm20.46-0.10601c2.6931-5.1226-6.3548 0.18828 0 0zm-3.9299-1.9723c7.1475-4.1802-3.9406-13.541-6.7733-5.5599-1.5407 3.9591 3.1831 7.8295 6.7733 5.5599zm49.614-20.87c0.85391-3.4383-10.607-6.592-7.8177-3.4512 2.7991-0.08746 5.7054 4.7893 7.8177 3.4512zm-52.074-0.75099c1.4146-2.0472 11.399-3.7939 4.1799-4.1926-2.6081-0.89794-10.194 7.3844-4.1799 4.1926zm41.525-5.2243c-1.5797-4.4089-3.5219 3.3618 0 0zm22.947 0.13836c3.7583-6.1372-7.7868-4.1459-3.4914 0.12223 0.97967 0.8582 2.5934 0.86815 3.4914-0.12223zm-53.328 0.02602c0.36561-4.3948-4.0199 1.7584 0 0zm2.2737-1.3206c-1.2924-1.9344-1.1312 1.8688 0 0zm20.693-0.98151c-0.50889-3.435-2.1002 2.0356 0 0zm-1.9711-0.78075c-0.82326-2.3985-1.932 1.4346 0 0zm-34.027-2.1273c3.2882-5.4247-7.1485-3.1156-2.2703 0.30831 0.73836 0.34005 1.6728 0.24585 2.2703-0.30831zm52.032-3.2707c5.8133-3.1473 12.267-4.8943 18.241-7.582-5.0469-0.54581-10.548 3.2766-15.48 5.1171-2.6136 0.74269-9.0399 5.5172-2.761 2.4649zm-38.967-1.243c-4.685-4.2187-10.369-7.5542-16.18-9.9967 2.5476 2.6686 9.5048 5.1552 13.246 8.5293 0.80546 0.35414 2.0962 2.1295 2.9342 1.4674zm-35.011 70.577c-4.5409-2.5256-0.79188-3.5678 1.0436-6.4045 0.79063 2.9473 5.9963 4.5085 0.85029 6.1092-0.87394 0.9502-0.51536 3.3773-1.8939 0.29526zm99.167-43.782c-4.4622-1.7557 1.3588-8.1253 2.7588-3.0141 2.3652 0.0017-2.5017 5.2877-2.7588 3.0141zm4.7575-9.6565c0.46846-3.7065-7.434-4.6232-2.1046-6.5253 1.427-1.5748 2.7858-6.287 3.9757-1.2054 2.8324 2.477 4.6306 3.0198 0.32686 4.7872-0.98909 0.48264-0.70185 3.7458-2.198 2.9435zm-100.91-1.5732c-2.0364-1.4784 2.4558-5.1446 2.4558-5.1446 2.8536 3.4358 2.5659 3.8727-0.3026 6.2567 0.18967 1.1162-1.4354-0.74141-2.1532-1.1121z" fill="#23222c"/>
  <path id="idx-e" d="m93.23 155.2c-4.0003-1.5047-8.8761-2.115-12.979-1.38-3.7293 2.5249-8.4173 0.41642-12.498 0.23489-4.1462-0.15473-8.6107-0.16503-12.557-0.91478-6.7014-3.194 1.8918-8.6647-1.4089-13.594-0.15377-3.0105 0.09369-6.0335 2.226-8.389 3.2781-2.2887 3.1552-5.4532 2.4174-9.062-1.1103-5.8666 3.7351-13.711-4.7558-15.161-6.531-2.0633-9.7261-10.189-15.377-12.013-1.3927 0.64136-5.3562 2.8928-6.6922 3.0433-0.66563 0.07502-1.7265 0.35318 0.09365-1.2161 2.4578-1.9491 9.1813-2.6218 6.256-7.232-2.3557-3.3705-8.3915 0.8098-11.9 1.04 0.37913-3.1953 7.1543-3.2929 10.477-3.9776 2.5907-4.8038-4.6066-6.0129-8.5124-5.3556-2.9156 0.4537-5.7201-1.5505-0.95771-1.637 3.4985-1.3796 11.123 3.4454 9.9052-3.2212 0.54-7.1778 3.2914-13.95 6.7126-20.209-0.11062-9.8644-0.75076-20.351 3.791-29.384 3.2134-3.0865 7.6944 2.0801 10.974 3.0693 4.2367 2.5041 8.2244 5.4274 11.956 8.6333 4.2722-0.88565 8.5718-1.35 12.93-0.9152 4.8952-0.21971 9.4636 2.0836 14.225 2.6504 8.3418-4.7383 17.054-9.7147 26.691-11.127 4.1202 2.8241 2.269 9.9351 2.2487 14.393-0.74677 6.5205-2.2226 12.98-4.6565 19.084 1.8439 5.1602 2.749 10.577 3.4401 15.996 3.1533 0.30838 6.73-1.0713 9.6101-0.15164-0.67944 2.9753-12.19-0.72535-10.351 6.1073 2.4696 2.2796 9.8536-0.13748 10.635 3.4979-1.2869 0.50023-10.017-3.2397-11.838 0.57313-4.4576 4.843 11.201 5.3995 4.857 6.4542-8.829-5.1257-10.436 7.6285-17.615 10.165-3.8656 2.3738-12.334 4.9405-5.1876 9.4655 5.9702 6.0935 9.0625 14.388 9.98 22.768 6.81 0.26421 13.211-4.1307 17.807-8.8264 3.4654-4.3515 6.7022-11.685 2.4758-16.488-3.2017-1.9593-5.9464 1.8645-9.2603 0.9813-1.9838 0.0948-4.1103-2.2866-4.3569-4.118-0.4099-2.8281-0.15156-5.6966 2.103-7.7756 2.6897-2.6371 6.2886-4.6074 10.135-4.0663 3.729-0.66181 6.8405 2.0826 9.6481 4.1158 7.7125 6.9722 8.8514 19.498 3.1767 28.054-6.4026 12.627-20.961 18.958-34.591 19.477-4.7149 5.151-12.495 7.2674-19.278 6.4108zm-15.725-3.4278c5.3749-3.9214 3.9862-11.675 7.1292-17.02 2.0049-1.8195 3.2854-8.7628 4.2329-2.1049 0.22896 8.9785-0.6292 12.945 2.0692 2.6817 1.7306-3.0892 4.1951-7.6368 8.1884-7.652 3.6745-0.61172 6.7457 1.6629 1.1986 1.6887-2.9376 0.91116-5.9129 3.3295-6.5386 6.4684-3.4128 4.1318 3.7367 9.7747 3.4587 10.275-4.3017-3.4006-10.53 6.001-4.4713 3.9152 1.4651 2.9548 6.5359 0.39056 9.1666 0.37361 4.6159-1.4216 7.4206-6.1146 8.5977-10.486 1.0103-9.5588-2.9866-19.144-9.8924-25.698-5.5935 0.64543-11.457 3.5528-17.459 3.3986-6.9972 0.0885-14.634 0.10387-20.729-3.7746-3.5626-2.885-2.1487 6.9232-2.0121 9.4559 0.98064 7.3576 1.4557 14.949 3.4896 22.064 0.78158 0.47262-6.9189 3.7476-1.6576 4.6549 1.4026-2.3115 4.2368 2.4367 5.0066-2.2543 2.2653-2.6074 2.7262-5.9056 2.7749-9.2626-0.07616-3.6088-0.01218-5.5639 2.252-6.7379-0.0429-3.065 3.4996-7.5502 2.6302-1.8433-1.7003 5.6958 1.3788 15.226-4.8574 17.902-2.708 3.5915 2.6492 2.9769 3.8385 2.7408 0.28816 1.865 2.2463 1.7697 3.5845 1.2156zm-19.768-3.0803c5.4505-4.6234-5.3697-3.4007-2.9367 0.54611 1.802-1.4696 2.0447 2.4809 2.9367-0.54611zm1.0214-5.7169c-0.69299-3.2449 2.4845-11.393-0.66798-12.174-2.5507 2.3782-4.8064 13.044 0.66798 12.174zm63.002-0.28145c11.681-2.973 23.131-12.125 24.713-24.663 0.38713-6.5131-1.0722-15.018-7.5529-18.111-2.5264-1.6439-5.6817-0.58129-8.5197-0.88416-4.1701 1.313-9.6545 6.978-5.0238 10.773 5.1978-1.1601 14.417-2.4359 13.94 6.1302 0.94628 11.621-9.8476 20.662-20.349 22.98-2.4465-0.0703-4.4308 1.6044-2.9417 3.7481 1.8452 0.80326 3.8299 0.33561 5.7346 0.0257zm-42.809-35.094c-3.4049-0.3017 1.926-0.95205 2.2843-2.4286 12.613-1.395 25.647-5.9242 34.465-15.322 1.1645-1.8915-1.3764-4.9344 3.1106-5.1066 3.7206-1.2925-6.2449-1.4935-0.63925-4.1298 4.3506-3.1293 1.5211-10.091 1.1803-14.716-2.5634-12.482-13.634-21.342-25.525-24.467-4.6636-1.5772-9.4968-2.1708-14.393-1.8884-8.0136-0.40991-15.996 2.3378-22.807 6.4286-11.599 7.1184-17.583 20.708-18.268 33.939 1.5226 0.82071 7.3939 2.312 3.217 3.4717-4.23-2.9425-3.3389 5.3125 0.82934 2.9268 1.6809 1.3658 0.0722 4.4517 3.6594 4.7593 1.1748 5.5424 7.371 7.423 11.018 10.869 3.0369 3.3679 7.1874 2.0708 10.528 2.2356-1.3607 4.2422 8.6167 2.7279 12.156 3.5551 4.9622 0.20958-0.691-0.10402-0.81474-0.12672zm-19.751-6.1633c0.25609-0.86768 0.25609 0.86768 0 0zm11.168-8.187c-4.9541 0.13932-4.708-11.066-1.7031-5.9226 0.11353 6.1717 11.414 2.3648 4.6642-0.77919-4.5887-6.2015 8.9328-9.0168 9.155-2.3373-1.0632 2.9871-6.2353 5.567-0.07543 6.9507 3.7243 1.2126 3.9372-7.4741 6.4332-4.1999 0.97595 3.2728-2.0874 6.2215-5.0759 6.8447-2.1804-0.01245-4.3278-0.11962-5.9333-1.7845-1.9803-0.0475-4.8223 2.7382-7.4646 1.228zm9.4289-7.1962c4.3512-5.2057-8.9753-4.6313-4.9353-0.2095 1.3582 1.0718 3.5067 1.2375 4.9353 0.2095zm18.443 2.7644c-12.239-2.3956-14.606-20.829-4.5163-27.31 2.9242-2.2049 6.4531-2.6646 9.9514-2.1917 4.1314 0.30297 7.8072 3.5477 10.002 6.8913 5.9155 9.3224-1.5179 24.237-13.133 22.958-0.77551-0.05882-1.5461-0.1775-2.305-0.34711zm8.1672-2.7208c4.3521-2.1952 7.4371-6.9849 6.7038-11.903 0.64666-5.4321-3.9251-10.202-8.7507-12.009-3.9817-0.71025-8.8722 0.05641-11.425 3.5414-3.6801 2.9389-4.622 8.334-3.7258 12.771 1.5168 7.2886 10.927 10.883 17.198 7.5993zm-9.625-3.6599c-7.4098-3.3468-5.5723-14.951 1.6046-17.455 1.9183-0.30237 4.1771-0.30458 6.0861-0.0011 4.6149 1.863 6.8223 7.7111 5.1414 12.2-1.864 4.9394-8.0372 7.5066-12.832 5.2564zm8.5157-3.3506c2.4943-4.2617-4.9165-2.4834-1.7789-7.5553 0.0429-5.4806-10.092-5.77-10.383 0.12567-1.3188 6.4569 7.5291 5.2449 8.9439 5.7483-0.10543 1.6523 1.9723 2.7755 3.2183 1.6813zm-51.66 7.6144c-10.964-2.6549-13.442-18.524-5.2044-25.504 5.5002-5.5013 16.001-4.428 19.419 2.877 2.2355 3.6173 2.2574 7.8861 1.9449 11.946-1.2085 5.0783-5.1969 10.064-10.51 10.824-1.8815 0.06701-3.7864 0.19626-5.6494-0.14358zm7.8023-2.3737c6.5264-2.2766 9.0192-10.465 6.2285-16.455-1.6415-4.4727-6.3117-8.3526-11.238-7.2964-4.7407 0.0876-8.3594 4.4124-9.9633 8.5794-0.36749 2.3966-0.61928 5.1244-0.18082 7.5168 1.8273 6.3309 8.9552 9.9632 15.153 7.6557zm-7.174-4.0151c-5.3168-1.9007-6.9458-9.1923-3.3952-13.402 3.5693-6.0912 14.149-5.0354 15.671 2.126 1.8019 5.0839-1.8404 10.847-7.0956 11.737-1.7243 0.33994-3.5436 0.1818-5.1801-0.46131zm7.6312-3.0583c1.305-3.6962-3.7791-2.708-1.5501-6.7177-0.46881-7.4812-12.817-5.1869-10.129 1.9595 0.62759 4.9022 7.0902 2.6996 8.3419 3.1443-0.08513 1.6317 2.1279 2.8737 3.3371 1.6138zm41.134 28.536c2.3713-0.41048 7.1886-4.3543 2.0377-2.8017-2.4906-0.15531-8.2449 4.9479-2.7879 3.1604l0.75024-0.3587zm6.9466-3.6334c2.1719-1.2732 8.3441-6.8664 6.6249-7.6335-1.7346 2.6477-9.7544 5.8639-8.0869 8.1684l0.66771-0.16528zm-61.498-3.28c-1.4714-1.138-0.02072 1.0931 0 0zm-1.9686-1.8914c-0.89412-2.6272-4.8631-3.8677-1.5262-0.53391-2e-3 0.33327 2.9406 2.5554 1.5262 0.53391zm-4.3388-6.2999c-2.1772-5.9536-1.9825 2.9619 0 0zm77.827-1.1154c-1.0261-1.8697-1.014 2.1871 0 0zm0.03302-36.373c1.0855-4.4592 1.3166-9.0978 1.0869-13.673-3.1514 1.3205-10.903 4.3031-9.9199 7.8735 2.708 0.99466 6.643 7.6138 8.8329 5.7993zm-70.294-5.7788c4.6335-2.8006 12.597-6.0511 4.377-10.09-6.4982-5.8324-5.3631 6.3772-5.9002 10.22 0.14928 0.72755 1.3624 0.40669 1.5231-0.12998zm61.155-6.5412c3.6953-1.8471 10.936-9.1485 13.19-2.687 2.0291-5.2425-1.1388-9.1526-6.3185-5.6774-5.8183 2.4521-12.531 4.3301-16.966 8.9275 3.6186 2.4365 6.6744 2.8261 10.094-0.56311zm-45.534-1.4065c4.4884-0.97822-4.4834-5.4826-6.0904-6.8291-3.1161-1.2991-10.773-8.5807-10.985-1.6059-0.23706 1.6245 3.6115 0.02374 4.849 2.029 4.6589 1.3366 6.9511 8.7913 12.226 6.406zm-33.904 68.835c-4.0152-1.169 0.28031-4.5572 0.61039-2.406 1.1267-1.2105 2.2622 9e-3 1.8795 1.0329-0.31757 0.8501-1.5714 1.6801-1.9767 2.8009l-0.15981-0.7031zm99.388-44.099c-3.5184-1.2804 1.046-5.7527 1.8395-1.1457 0.77201-0.09354-1.7224 3.2694-1.8395 1.1457zm3.8084-10.677c-2.1058-2.7123-4.2319-2.5848-0.25835-4.7959 0.95923-5.3976 3.5052 2.1327 4.9512 2.0688-2.8204-0.44724-3.1689 6.4429-4.6928 2.7271zm-98.674 1.4019c-2.5279-0.97667-4.3144-12.33 0.72512-6.0359 5.0998-4.2041-0.14216 8.8066-0.72512 6.0359z" fill="#08070a"/>
 </g>
</svg>
