<?xml version="1.0" encoding="UTF-8"?>
<svg id="idx-a" width="108" height="108" version="1.0" viewBox="0 0 108 108" xmlns="http://www.w3.org/2000/svg" xmlns:cc="http://creativecommons.org/ns#" xmlns:dc="http://purl.org/dc/elements/1.1/" xmlns:rdf="http://www.w3.org/1999/02/22-rdf-syntax-ns#">
 <path id="idx-b" d="m53.184 68.245c-1.689-0.84608-0.66271-2.9686-1.3413-4.3995 0.7357-1.3356 0.08015-2.9092 0.40491-4.3604 0.3219-1.0705-1.0635-1.5067-1.3101-2.5048-0.04352-2.3696-2.8718-0.0332-3.7959-1.7848-1.394-1.5262 1.0462-3.7936 2.5381-2.4978 0.65229 0.2682 2.1922-0.0765 2.5179-0.58164-0.78651-1.001-2.2616-0.52485-1.9257-2.3394 1.2607-9.7185 2.0362-19.308 3.202-28.826 0.10422-0.63757 0.0836-3.2435 0.81576-2.7273 0.11324 1.9389 0.4968 3.8335 0.7216 5.7534 0.35054 1.9608 0.54932 3.9458 0.79182 5.93 0.3456 1.7908 0.4258 3.5975 0.70421 5.4176 0.19314 1.8998 0.49808 3.6212 0.86197 5.4177 0.31622 1.7346 1.1468 7.1565 1.3996 8.9076-0.22345 0.49885 0.62006 1.2651-1.4816 1.9825 0.799 0.03953 2.1352-0.06662 2.7417 0.4625 1.7745 0.5487 2.7408 3.1936 0.70845 4.1192-1.2341 0.58645-2.3513-1.9991-2.3611 0.25818-0.14097 1.7477-2.6259 2.287-2.1544 4.2622 0.15024 1.2705-0.4913 2.2006 0.13902 3.6179-0.87046 1.0514 0.26407 2.5867-0.74729 3.425-0.65692 0.66917-1.5707 0.70844-2.4297 0.46772zm1.3475-0.39638c2.4499-0.87374-0.20229-3.2882-1.6712-1.8908-0.83485 1.1586 0.45744 2.3046 1.6712 1.8908zm-1.2236-2.4322c0.94327-1.0948 2.7254 1.0554 2.5827-1.1824 0.12625-1.6287-2.4572-1.7167-3.2526-0.93364-0.71476 0.42229-0.26136 2.3916 0.66996 2.1161zm2.1812-2.9486c0.54902-1.5938 0.44296-3.7725-1.7479-3.1536-1.7249-0.74496-1.6577 3.3723-0.2348 3.1138 0.68855-0.12454 1.2934 0.15921 1.9827 0.0397zm0.10029-3.5896c1.3265-0.19464 2.2383-1.6244 2.3992-2.9278 0.31395-1.3733 0.01-3.2059-1.1141-4.0103-1.2626 0.2178 0.22086 1.6115-0.032 2.4155 0.22329 1.499-0.66691 3.2475-2.332 3.1655-1.823 0.3956-2.0025-2.0973-3.2705-2.183-0.6828 1.3821 0.96631 3.2688 2.329 3.5663 0.65839 0.15184 1.3543 7e-3 2.0204-0.0261zm-0.38836-1.9343c2.1875-1.1838-3.5462-1.1242-1.9229-0.0768 0.49075 0.3408 1.3548 0.22027 1.9229 0.0768zm-0.93404-1.3841c1.5551 0.24892 2.8755-0.28139 1.9492-2.0507-0.41614-1.5418-2.863-0.9509-3.8254-0.43396 0.13438 1.4122-0.3407 3.1927 1.8762 2.4847zm-0.60178-0.71559c-2.2076-1.7464 3.3495-2.4215 1.5673-0.17345-0.45328 0.32836-1.0511 0.16805-1.5673 0.17345zm0.95056-0.41625c1.9718-1.0066-2.5355-0.95602-0.53622 0.0741l0.24027-0.0223zm6.0746 1.0985c1.8313-1.2999-0.64857-3.541-2.2524-3.224-1.1092 0.72515 0.54626 2.7195 1.4553 3.2609 0.23933 0.16444 0.55921 0.0828 0.79709-0.0369zm-10.683-0.16344c1.5644 0.54833 2.7489-2.2759 1.1381-2.4146-1.1932 1.5157-3.1263-1.4386-3.8704 0.90371-0.25484 1.7111 1.5284 1.7042 2.7323 1.5109zm5.9245-3.3792c0.96793-1.4506 2.8627-0.60622 2.2039-2.7019-0.23593-1.791-0.67097-4.1963-0.75552-5.9997-0.34045-1.8968-0.81257-3.7975-0.97617-5.7192-0.2579-1.7313-0.4862-3.4539-0.66708-5.2055-0.34782-1.9422-0.39655-4.0112-0.8047-5.9449-0.16159-1.3758-0.63634-4.8669-0.96695-6.4842-0.95472 9.4774-2.0466 21.135-3.1957 30.593 0.86184 0.40969 1.8995 1.7856 2.9745 1.5325 0.72834-0.01324 1.4668 0.0375 2.1877-0.07034z" fill="#2b2111" stroke-width=".15151"/>
 <metadata id="idx-c">
  <rdf:RDF>
   <cc:Work rdf:about="">
    <dc:format>image/svg+xml</dc:format>
    <dc:type rdf:resource="http://purl.org/dc/dcmitype/StillImage"/>
    <dc:title/>
   </cc:Work>
  </rdf:RDF>
 </metadata>
 <path id="idx-d" d="m82.961 67.042c-0.86849-14.56-27.802-41.964-28.671-48.819-0.86849 6.851-27.802 34.255-28.671 48.819-0.60651 10.293 6.083 14.56 12.166 14.56 6.5861-0.07744 12.026-10.051 13.899-11.99 0.86849 2.5696-5.7529 23.98-7.82 23.98h20.855c-2.0672 0-8.6885-21.411-7.82-23.98 1.6406 1.7811 6.4495 11.692 13.903 11.99 6.0794-0.0036 12.765-4.2671 12.159-14.56z" stroke-width="3.5888"/>
 <path id="idx-e" d="m53.266 68.175c-1.6762-0.83434-0.6702-2.9522-1.3488-4.3735 0.72204-1.3331 0.06555-2.8966 0.38019-4.3429 0.31362-1.0672-1.0601-1.4949-1.3089-2.4875-0.05433-2.3588-2.8434-0.01949-3.7666-1.759-1.3873-1.5128 1.0178-3.7816 2.5009-2.4987 0.64707 0.26392 2.17-0.08651 2.4901-0.59092-0.78342-0.99284-2.2416-0.51184-1.9176-2.3199 1.2021-9.6811 1.9243-19.231 3.0334-28.712 0.10015-0.63522 0.06738-3.2294 0.79469-2.719 0.12132 1.9297 0.51004 3.8141 0.74171 5.7243 0.35635 1.9504 0.56257 3.9256 0.81207 5.8998 0.35065 1.7812 0.43863 3.5794 0.7229 5.3902 0.20023 1.8904 0.5103 3.6027 0.87908 5.3895 0.3213 1.7254 1.1693 7.1192 1.4279 8.8612-0.21886 0.49768 0.61989 1.2565-1.4575 1.9806 0.79123 0.03558 2.1137-0.07641 2.7166 0.44751 1.7594 0.53787 2.7287 3.1664 0.72094 4.0974-1.2191 0.58966-2.3373-1.9791-2.3364 0.26817-0.13128 1.7406-2.5889 2.2892-2.1127 4.2533 0.15477 1.2641-0.47596 2.1931 0.1548 3.6011-0.8568 1.0508 0.27371 2.5739-0.7236 3.4132-0.6472 0.66928-1.5517 0.71269-2.4032 0.4771zm1.3322-0.40097c2.4213-0.8814-0.21587-3.2725-1.6635-1.8744-0.82104 1.1574 0.46381 2.2922 1.6635 1.8744zm-1.223-2.4156c0.92868-1.0943 2.7033 1.0379 2.5513-1.1893 0.11729-1.6221-2.4409-1.6974-3.2247-0.91413-0.70564 0.42378-0.24742 2.3821 0.67333 2.1035zm2.1455-2.9458c0.53599-1.5893 0.42065-3.7578-1.7455-3.1313-1.7112-0.7335-1.6252 3.3651-0.21768 3.101 0.6811-0.12723 1.2812 0.1524 1.9632 0.03016zm0.08226-3.5741c1.3123-0.20003 2.2083-1.6278 2.3614-2.9261 0.3043-1.3686-0.0053-3.1916-1.122-3.9872-1.249 0.22279 0.2263 1.6033-0.02022 2.4048 0.22817 1.4913-0.64486 3.2361-2.2938 3.1624-1.803 0.40244-1.9925-2.0785-3.2483-2.1579-0.66944 1.3792 0.97219 3.2497 2.3228 3.5394 0.65255 0.14806 1.3408 6.1e-4 2.0002-0.03552zm-0.39367-1.9239c2.1601-1.1889-3.5162-1.1024-1.9041-0.0674 0.48748 0.33697 1.3424 0.2129 1.9041 0.0674zm-0.93131-1.3735c1.5408 0.24047 2.8455-0.2937 1.9201-2.0508-0.41931-1.533-2.839-0.93315-3.7894-0.41398 0.13974 1.4053-0.32215 3.1801 1.8693 2.4647zm-0.59918-0.70956c-2.1939-1.7282 3.3046-2.4265 1.5508-0.18007-0.44721 0.32904-1.0399 0.17226-1.5508 0.18007zm0.93912-0.41888c1.9473-1.0114-2.5148-0.93979-0.53053 0.07629l0.23778-0.02335zm6.0193 1.0649c1.8069-1.3027-0.65891-3.5222-2.2452-3.1989-1.0947 0.72715 0.55372 2.7048 1.4562 3.2395 0.23773 0.16258 0.55404 0.07979 0.78898-0.04051zm-10.577-0.11231c1.5515 0.5385 2.7107-2.2787 1.1153-2.4092-1.1742 1.5146-3.102-1.4174-3.8276 0.91794-0.24419 1.7047 1.5212 1.6894 2.7122 1.4913zm5.8495-3.392c0.95141-1.4487 2.8313-0.61703 2.1691-2.7002-0.24208-1.7819-0.6842-4.1745-0.77645-5.9694-0.34606-1.8867-0.8225-3.7767-0.99358-5.6891-0.26355-1.7223-0.49775-3.4362-0.68513-5.1791-0.35357-1.9319-0.41163-3.9915-0.82489-5.9146-0.1665-1.3689-0.65309-4.8422-0.98808-6.4507-0.90025 9.4396-1.9259 21.051-3.0187 30.472 0.8552 0.4038 1.8891 1.7687 2.9522 1.5116 0.72103-0.01661 1.4524 0.03042 2.1656-0.08035z" fill="#2b2111" stroke-width=".15042"/>
 <path id="idx-f" d="m48.212 2.5556h2.911l6.5577 7.5278v-5.7884c0-0.61682-0.07385-1.0017-0.22149-1.1547-0.19495-0.20724-0.50343-0.31087-0.92532-0.31088h-0.3718v-0.27388h3.7337v0.27388h-0.3797c-0.45355 1.26e-5 -0.77523 0.12831-0.96506 0.38491-0.1161 0.15791-0.17405 0.51815-0.17403 1.0807v8.4605h-0.28472l-7.0719-8.083v6.1807c0 0.61683 0.07115 1.0017 0.21358 1.1547 0.2004 0.20727 0.5089 0.31089 0.92552 0.31089h0.3797v0.27387h-3.7335v-0.27388h0.37179c0.4588 0 0.78312-0.12831 0.97297-0.38491 0.11597-0.15791 0.17402-0.51814 0.17403-1.0807v-6.98c-0.31118-0.34048-0.54717-0.56501-0.70796-0.67358-0.16092-0.10852-0.39691-0.20972-0.70796-0.30349-0.15296-0.044467-0.38503-0.066575-0.69622-0.066575z" fill="#f00" stroke-width="1.3059"/>
</svg>
